<svg xmlns="http://www.w3.org/2000/svg" viewBox="0 0 64 64" fill="none">
  <defs>
    <linearGradient id="shell" x1="8" y1="4" x2="56" y2="60" gradientUnits="userSpaceOnUse">
      <stop offset="0" stop-color="#FFFFFF"/>
      <stop offset="0.45" stop-color="#F5FAF6"/>
      <stop offset="1" stop-color="#E3F1EA"/>
    </linearGradient>
    <linearGradient id="mark" x1="16" y1="12" x2="49" y2="52" gradientUnits="userSpaceOnUse">
      <stop offset="0" stop-color="#111827"/>
      <stop offset="1" stop-color="#0071E3"/>
    </linearGradient>
    <linearGradient id="edge" x1="10" y1="8" x2="54" y2="58" gradientUnits="userSpaceOnUse">
      <stop offset="0" stop-color="#FFFFFF"/>
      <stop offset="0.5" stop-color="#CFE9DE"/>
      <stop offset="1" stop-color="#8CCFB8"/>
    </linearGradient>
    <filter id="softShadow" x="-20%" y="-20%" width="140%" height="145%" color-interpolation-filters="sRGB">
      <feDropShadow dx="0" dy="10" stdDeviation="9" flood-color="#0A2540" flood-opacity="0.14"/>
      <feDropShadow dx="0" dy="1" stdDeviation="1" flood-color="#FFFFFF" flood-opacity="0.92"/>
    </filter>
  </defs>

  <rect x="5" y="5" width="54" height="54" rx="17" fill="url(#shell)" filter="url(#softShadow)"/>
  <rect x="5.75" y="5.75" width="52.5" height="52.5" rx="16.25" stroke="url(#edge)" stroke-width="1.5"/>
  <path d="M18 17H31.5C40.2 17 45.8 21.8 45.8 29.1C45.8 33.9 43.2 37.4 39.2 39L48 50H37.4L29.9 40H26.8V50H18V17Z" fill="url(#mark)"/>
  <path d="M26.8 24.3V33.1H31.2C34.8 33.1 36.9 31.5 36.9 28.7C36.9 25.9 34.8 24.3 31.2 24.3H26.8Z" fill="white" fill-opacity="0.94"/>
  <path d="M32.5 17H49L39.8 27.2C37.7 24.8 35.2 23.6 31.5 23.6H28.7L32.5 17Z" fill="white" fill-opacity="0.9"/>
  <path d="M31.3 33.2H49.5L39.2 43.8L31.3 33.2Z" fill="white" fill-opacity="0.92"/>
  <path d="M19.5 18.5H31.4C39 18.5 44.1 22.7 44.1 29.1C44.1 33.4 41.8 36.5 38.3 37.8" stroke="white" stroke-opacity="0.42" stroke-width="1.2" stroke-linecap="round"/>
</svg>
